<svg xmlns="http://www.w3.org/2000/svg" xmlns:xlink="http://www.w3.org/1999/xlink" viewBox="0,0,256,256" width="64px" height="64px" fill-rule="nonzero"><g fill="none" fill-rule="nonzero" stroke="none" stroke-width="1" stroke-linecap="butt" stroke-linejoin="miter" stroke-miterlimit="10" stroke-dasharray="" stroke-dashoffset="0" font-family="none" font-weight="none" font-size="none" text-anchor="none" style="mix-blend-mode: normal"><g transform="scale(4,4)"><path d="M25.173,5.006c-3.808,0.341 -6.171,4.093 -6.173,9.818c0,4.295 7.128,16.409 11.043,23.044c-0.106,-22.728 -0.837,-25.842 -4.87,-32.862zM25.157,4.979v0z" fill="#ed7899"></path><path d="M26.003,40.069l0.003,0.006l0.853,-0.523l-0.856,0.517zM10.2,14.004c-2.486,2.081 -3.102,5.02 -3.188,7.117c-0.167,4.033 1.393,7.802 3.02,9.44c1.131,1.116 4.375,2.913 8.132,4.993c2.369,1.313 5.055,2.8 7.788,4.43z" fill="#ed7899"></path><path d="M24.025,44.139c0.005,0.007 0.009,0.012 0.013,0.016l0.468,-0.886zM2.007,32.003c0.997,11.418 10.395,11.997 12.273,11.997h9.481l-21.687,-11.989c-0.023,-0.012 -0.049,-0.012 -0.067,-0.008z" fill="#ed7899"></path><path d="M8.961,48c0.918,3.519 2.582,5 5.608,5c3.496,0 7.015,-1.833 9.412,-4.903c0.025,-0.033 0.02,-0.072 0.012,-0.097z" fill="#ed7899"></path><path d="M38.817,5.006c-4.024,6.765 -4.758,9.856 -4.816,32.788c3.671,-6.221 10.999,-18.694 10.999,-22.969c-0.002,-5.729 -2.368,-9.482 -6.183,-9.819z" fill="#ed7899"></path><path d="M37.997,40.07l-0.003,0.005l0.561,0.771l-0.51,-0.855zM53.845,14.002l-15.796,25.981c2.733,-1.629 5.419,-3.116 7.788,-4.429c3.757,-2.08 7.001,-3.877 8.139,-5.001c1.62,-1.631 3.18,-5.399 3.013,-9.433c-0.088,-2.097 -0.703,-5.035 -3.144,-7.118z" fill="#ed7899"></path><path d="M61.97,32c-0.015,0 -0.029,0.003 -0.044,0.011l-21.761,12.029l9.555,-0.04c1.878,0 11.275,-0.58 12.273,-11.997c-0.007,-0.002 -0.015,-0.003 -0.023,-0.003z" fill="#ed7899"></path><path d="M40.007,48c-0.008,0.025 -0.014,0.063 0.013,0.098c2.396,3.069 5.915,4.902 9.411,4.902c3.026,0 4.69,-1.481 5.566,-4.954z" fill="#ed7899"></path><g fill="#8d6c9f"><path d="M24.643,6.098c3.403,6.033 4.203,9.509 4.338,27.983c-3.687,-6.347 -8.981,-15.896 -8.981,-19.257c0.001,-4.821 1.762,-8.082 4.643,-8.726M25.238,4c-0.02,0 -0.04,0.001 -0.06,0.002c-4.092,0.313 -7.176,4.105 -7.178,10.822c0,4.155 5.666,14.205 11.278,23.716c0.187,0.318 0.485,0.46 0.78,0.46c0.475,0 0.944,-0.368 0.942,-0.965c-0.061,-22.976 -0.82,-26.327 -4.977,-33.555c-0.164,-0.286 -0.466,-0.48 -0.785,-0.48z"></path><path d="M9.987,15.581l13.075,21.568c-1.546,-0.879 -3.037,-1.705 -4.421,-2.471c-3.536,-1.958 -6.875,-3.808 -7.901,-4.82c-1.438,-1.449 -2.883,-4.989 -2.73,-8.696c0.069,-1.634 0.484,-3.824 1.977,-5.581M10.169,13c-0.235,0 -0.472,0.078 -0.664,0.241c-5.691,4.858 -3.484,14.699 -0.184,18.025c1.977,1.952 8.862,5.25 16.124,9.581c0.179,0.106 0.363,0.153 0.54,0.153c0.709,0 1.295,-0.753 0.873,-1.449l-15.802,-26.065c-0.191,-0.315 -0.537,-0.486 -0.887,-0.486z"></path><path d="M3.266,33.813l16.619,9.187h-5.605c-2.264,0 -9.362,-0.7 -11.014,-9.187M2.031,31c-0.561,0 -1.076,0.43 -1.028,1.003c0.854,10.236 8.215,12.997 13.277,12.997h9.696c1.035,0 1.415,-1.242 0.53,-1.731l-21.949,-12.133c-0.169,-0.094 -0.35,-0.136 -0.526,-0.136z"></path><path d="M21.795,49c-2.065,1.905 -4.656,3 -7.225,3c-2.177,0 -3.435,-0.861 -4.23,-3h11.455M24.043,47h-15.082c-0.624,0 -1.092,0.64 -0.928,1.29c0.819,3.246 2.513,5.71 6.536,5.71c3.893,0 7.677,-2.057 10.2,-5.289c0.528,-0.676 0.093,-1.711 -0.726,-1.711z"></path><path d="M39.337,6.095c2.893,0.633 4.662,3.897 4.663,8.731c0,3.361 -5.295,12.911 -8.983,19.258c0.129,-18.718 0.924,-22.169 4.32,-27.989M38.754,4c-0.315,0 -0.613,0.188 -0.779,0.467c-4.237,7.114 -4.922,10.575 -4.975,33.568c-0.001,0.598 0.468,0.965 0.942,0.965c0.295,0 0.593,-0.142 0.78,-0.46c5.612,-9.51 11.278,-19.56 11.278,-23.714c-0.002,-6.724 -3.09,-10.516 -7.187,-10.824c-0.02,-0.001 -0.04,-0.002 -0.059,-0.002z"></path><path d="M54.013,15.581c1.493,1.757 1.909,3.947 1.976,5.581c0.153,3.707 -1.292,7.247 -2.715,8.681c-1.04,1.027 -4.38,2.876 -7.915,4.834c-1.384,0.766 -2.875,1.592 -4.421,2.471l13.075,-21.567M53.831,13c-0.349,0 -0.696,0.171 -0.887,0.486l-15.802,26.065c-0.422,0.696 0.164,1.449 0.873,1.449c0.177,0 0.361,-0.047 0.54,-0.153c7.263,-4.331 14.147,-7.629 16.124,-9.581c3.3,-3.326 5.507,-13.167 -0.185,-18.025c-0.191,-0.163 -0.428,-0.241 -0.663,-0.241z"></path><path d="M60.734,33.813c-1.652,8.487 -8.75,9.187 -11.014,9.187h-5.605l16.619,-9.187M61.969,31c-0.176,0 -0.357,0.042 -0.526,0.136l-21.948,12.133c-0.886,0.489 -0.506,1.731 0.529,1.731h9.696c5.062,0 12.422,-2.761 13.277,-12.997c0.048,-0.573 -0.467,-1.003 -1.028,-1.003z"></path><path d="M53.661,49c-0.795,2.139 -2.053,3 -4.23,3c-2.569,0 -5.16,-1.095 -7.225,-3h11.455M55.039,47h-15.082c-0.819,0 -1.255,1.035 -0.727,1.711c2.524,3.232 6.308,5.289 10.201,5.289c4.024,0 5.717,-2.464 6.536,-5.71c0.164,-0.65 -0.303,-1.29 -0.928,-1.29z"></path><path d="M49,60c-0.553,0 -1,-0.447 -1,-1v-2c0,-0.553 0.447,-1 1,-1c0.553,0 1,0.447 1,1v2c0,0.553 -0.447,1 -1,1z"></path><path d="M44.031,59.371c-0.103,0 -0.206,-0.016 -0.31,-0.049c-0.524,-0.171 -0.813,-0.735 -0.642,-1.261l0.618,-1.901c0.171,-0.524 0.732,-0.813 1.261,-0.642c0.524,0.171 0.813,0.735 0.642,1.261l-0.618,1.901c-0.137,0.423 -0.529,0.691 -0.951,0.691z"></path><path d="M39.499,57.238c-0.204,0 -0.409,-0.063 -0.587,-0.191c-0.446,-0.324 -0.546,-0.949 -0.221,-1.396l1.176,-1.618c0.324,-0.447 0.948,-0.546 1.396,-0.221c0.446,0.324 0.546,0.949 0.221,1.396l-1.176,1.618c-0.195,0.27 -0.499,0.412 -0.809,0.412z"></path><path d="M35.851,53.809c-0.31,0 -0.614,-0.143 -0.811,-0.412c-0.324,-0.447 -0.225,-1.072 0.222,-1.397l1.618,-1.175c0.449,-0.325 1.072,-0.225 1.397,0.222c0.324,0.447 0.225,1.072 -0.222,1.397l-1.618,1.175c-0.177,0.128 -0.383,0.19 -0.586,0.19z"></path><path d="M15,60c-0.553,0 -1,-0.447 -1,-1v-2c0,-0.553 0.447,-1 1,-1c0.553,0 1,0.447 1,1v2c0,0.553 -0.447,1 -1,1z"></path><path d="M19.969,59.371c-0.422,0 -0.813,-0.269 -0.951,-0.69l-0.618,-1.901c-0.171,-0.525 0.117,-1.09 0.642,-1.261c0.529,-0.172 1.09,0.117 1.261,0.642l0.618,1.901c0.171,0.525 -0.117,1.09 -0.642,1.261c-0.104,0.032 -0.208,0.048 -0.31,0.048z"></path><path d="M24.501,57.238c-0.31,0 -0.614,-0.143 -0.81,-0.412l-1.176,-1.618c-0.325,-0.447 -0.226,-1.072 0.221,-1.396c0.447,-0.325 1.072,-0.227 1.396,0.221l1.176,1.618c0.325,0.447 0.226,1.072 -0.221,1.396c-0.177,0.129 -0.382,0.191 -0.586,0.191z"></path><path d="M28.149,53.809c-0.203,0 -0.409,-0.062 -0.587,-0.19l-1.618,-1.175c-0.446,-0.325 -0.546,-0.95 -0.222,-1.397c0.324,-0.446 0.948,-0.548 1.397,-0.222l1.618,1.175c0.446,0.325 0.546,0.95 0.222,1.397c-0.195,0.269 -0.5,0.412 -0.81,0.412z"></path></g></g></g><g fill="#eb7171" fill-rule="nonzero" stroke="none" stroke-width="1" stroke-linecap="butt" stroke-linejoin="miter" stroke-miterlimit="10" stroke-dasharray="" stroke-dashoffset="0" font-family="none" font-weight="none" font-size="none" text-anchor="none" style="mix-blend-mode: normal"><g><path d="M103.90663,234.94959l-1.98,11.37h-1.47l0.92,-5.26h-5.56l-0.91,5.26h-1.47l1.98,-11.37h1.47l-0.86,4.89h5.55l0.85,-4.89zM110.96663,246.31959h-1.44c-0.03333,-0.15333 -0.05,-0.30333 -0.05,-0.45v0l0.02,-0.44c-0.77333,0.72 -1.59667,1.07 -2.47,1.05v0c-0.74,-0.01333 -1.34333,-0.25 -1.81,-0.71c-0.46667,-0.46 -0.68,-1.03667 -0.64,-1.73v0c0.05333,-0.89333 0.44667,-1.59333 1.18,-2.1c0.73333,-0.5 1.69333,-0.75 2.88,-0.75v0l1.48,0.01l0.09,-0.68c0.05333,-0.5 -0.04333,-0.9 -0.29,-1.2c-0.24667,-0.29333 -0.61667,-0.44333 -1.11,-0.45v0c-0.48667,-0.01333 -0.91667,0.10333 -1.29,0.35c-0.37333,0.24667 -0.6,0.57333 -0.68,0.98v0l-1.42,0.01c0.04667,-0.49333 0.24,-0.93333 0.58,-1.32c0.33333,-0.38 0.76667,-0.67667 1.3,-0.89c0.53333,-0.20667 1.08333,-0.30667 1.65,-0.3v0c0.88,0.02 1.56333,0.28667 2.05,0.8c0.49333,0.51333 0.7,1.19667 0.62,2.05v0l-0.69,4.18l-0.04,0.61c-0.00667,0.28667 0.02667,0.57 0.1,0.85v0zM107.31663,245.22959v0c0.45333,0.00667 0.88,-0.10333 1.28,-0.33c0.40667,-0.22667 0.75333,-0.54 1.04,-0.94v0l0.31,-1.74l-1.07,-0.01c-0.89333,0 -1.57667,0.14 -2.05,0.42c-0.47333,0.28 -0.74,0.68 -0.8,1.2v0c-0.04667,0.39333 0.04333,0.72333 0.27,0.99c0.23333,0.26 0.57333,0.39667 1.02,0.41zM118.29663,237.80959l-0.16,1.35l-0.66,-0.07c-0.90667,0 -1.62,0.40667 -2.14,1.22v0l-1.04,6.01h-1.41l1.47,-8.45l1.36,-0.01l-0.21,0.98c0.6,-0.78667 1.30667,-1.16667 2.12,-1.14v0c0.17333,0 0.39667,0.03667 0.67,0.11zM121.71663,246.47959v0c-1.05333,-0.02 -1.87667,-0.41 -2.47,-1.17c-0.59333,-0.75333 -0.84333,-1.72 -0.75,-2.9v0l0.04,-0.33c0.09333,-0.84 0.34333,-1.60667 0.75,-2.3c0.40667,-0.69333 0.90333,-1.21667 1.49,-1.57c0.59333,-0.34667 1.23,-0.51333 1.91,-0.5v0c0.87333,0.02 1.55667,0.31 2.05,0.87c0.49333,0.55333 0.76333,1.30667 0.81,2.26v0c0.01333,0.34 0.00333,0.68 -0.03,1.02v0l-0.09,0.65h-5.52c-0.09333,0.76667 0.03333,1.41667 0.38,1.95c0.34667,0.54 0.86333,0.82 1.55,0.84v0c0.83333,0.02 1.60333,-0.35667 2.31,-1.13v0l0.81,0.69c-0.35333,0.50667 -0.81,0.90667 -1.37,1.2c-0.56,0.28667 -1.18333,0.42667 -1.87,0.42zM122.61663,238.88959v0c-0.58,-0.01333 -1.09,0.18333 -1.53,0.59c-0.43333,0.41333 -0.77667,1.02667 -1.03,1.84v0l4.11,0.01l0.03,-0.13c0.08,-0.65333 -0.02667,-1.19667 -0.32,-1.63c-0.29333,-0.44 -0.71333,-0.66667 -1.26,-0.68zM129.97663,234.31959l-2.09,12h-1.4l2.08,-12zM133.20663,237.86959l-1.47,8.45h-1.41l1.47,-8.45zM132.89663,234.77959v0c0.24,-0.00667 0.44,0.06667 0.6,0.22c0.16,0.15333 0.24,0.35333 0.24,0.6v0c-0.00667,0.24667 -0.08667,0.44667 -0.24,0.6c-0.15333,0.16 -0.35333,0.24333 -0.6,0.25c-0.24667,0.01333 -0.44667,-0.05667 -0.6,-0.21c-0.15333,-0.14667 -0.23,-0.34333 -0.23,-0.59c0.00667,-0.24667 0.08667,-0.45 0.24,-0.61c0.14667,-0.16 0.34333,-0.24667 0.59,-0.26zM135.50663,237.86959l1.33,-0.01l-0.18,0.94c0.70667,-0.74667 1.56333,-1.11 2.57,-1.09v0c0.53333,0.01333 0.98667,0.13667 1.36,0.37c0.37333,0.23333 0.63,0.56333 0.77,0.99v0c0.79333,-0.92667 1.73,-1.38 2.81,-1.36v0c0.84,0.02 1.46,0.30333 1.86,0.85c0.40667,0.54667 0.55667,1.28333 0.45,2.21v0l-0.93,5.55h-1.41l0.93,-5.57c0.02667,-0.27333 0.02667,-0.52 0,-0.74v0c-0.1,-0.70667 -0.56333,-1.07 -1.39,-1.09v0c-0.52,-0.00667 -0.99,0.15333 -1.41,0.48c-0.42,0.33333 -0.69,0.76667 -0.81,1.3v0l-0.96,5.62h-1.42l0.94,-5.56c0.06667,-0.58 -0.02,-1.02667 -0.26,-1.34c-0.24667,-0.31333 -0.62333,-0.47333 -1.13,-0.48v0c-0.88,-0.02 -1.58,0.38 -2.1,1.2v0l-1.07,6.18h-1.42zM154.33663,246.31959h-1.44c-0.03333,-0.15333 -0.05,-0.30333 -0.05,-0.45v0l0.02,-0.44c-0.77333,0.72 -1.59667,1.07 -2.47,1.05v0c-0.74667,-0.01333 -1.35,-0.25 -1.81,-0.71c-0.46667,-0.46 -0.68,-1.03667 -0.64,-1.73v0c0.05333,-0.89333 0.44333,-1.59333 1.17,-2.1c0.73333,-0.5 1.69667,-0.75 2.89,-0.75v0l1.48,0.01l0.09,-0.68c0.05333,-0.5 -0.04333,-0.9 -0.29,-1.2c-0.24667,-0.29333 -0.61667,-0.44333 -1.11,-0.45v0c-0.48667,-0.01333 -0.91667,0.10333 -1.29,0.35c-0.37333,0.24667 -0.6,0.57333 -0.68,0.98v0l-1.43,0.01c0.05333,-0.49333 0.24667,-0.93333 0.58,-1.32c0.34,-0.38 0.77667,-0.67667 1.31,-0.89c0.52667,-0.20667 1.07667,-0.30667 1.65,-0.3v0c0.88,0.02 1.56333,0.28667 2.05,0.8c0.49333,0.51333 0.7,1.19667 0.62,2.05v0l-0.69,4.18l-0.04,0.61c-0.00667,0.28667 0.02667,0.57 0.1,0.85v0zM150.67663,245.22959v0c0.45333,0.00667 0.88333,-0.10333 1.29,-0.33c0.4,-0.22667 0.74667,-0.54 1.04,-0.94v0l0.31,-1.74l-1.07,-0.01c-0.89333,0 -1.57667,0.14 -2.05,0.42c-0.47333,0.28 -0.74333,0.68 -0.81,1.2v0c-0.04667,0.39333 0.04667,0.72333 0.28,0.99c0.23333,0.26 0.57,0.39667 1.01,0.41zM157.71663,237.86959l1.34,-0.01l-0.2,1.07c0.76,-0.83333 1.62333,-1.24 2.59,-1.22v0c0.79333,0.02 1.38,0.29667 1.76,0.83c0.38,0.53333 0.52333,1.28 0.43,2.24v0l-0.93,5.54h-1.41l0.93,-5.56c0.03333,-0.26 0.03667,-0.49667 0.01,-0.71v0c-0.08667,-0.73333 -0.51667,-1.10667 -1.29,-1.12v0c-0.84667,-0.01333 -1.59333,0.44 -2.24,1.36v0l-1.04,6.03h-1.42zM171.49663,246.31959h-1.43c-0.04,-0.15333 -0.06,-0.30333 -0.06,-0.45v0l0.02,-0.44c-0.77333,0.72 -1.59333,1.07 -2.46,1.05v0c-0.74667,-0.01333 -1.35333,-0.25 -1.82,-0.71c-0.46667,-0.46 -0.68,-1.03667 -0.64,-1.73v0c0.05333,-0.89333 0.44667,-1.59333 1.18,-2.1c0.73333,-0.5 1.69667,-0.75 2.89,-0.75v0l1.47,0.01l0.1,-0.68c0.04667,-0.5 -0.05333,-0.9 -0.3,-1.2c-0.24667,-0.29333 -0.61667,-0.44333 -1.11,-0.45v0c-0.48667,-0.01333 -0.91667,0.10333 -1.29,0.35c-0.36667,0.24667 -0.59333,0.57333 -0.68,0.98v0l-1.42,0.01c0.04667,-0.49333 0.24,-0.93333 0.58,-1.32c0.33333,-0.38 0.76667,-0.67667 1.3,-0.89c0.53333,-0.20667 1.08333,-0.30667 1.65,-0.3v0c0.88,0.02 1.56333,0.28667 2.05,0.8c0.49333,0.51333 0.7,1.19667 0.62,2.05v0l-0.69,4.18l-0.03,0.61c-0.01333,0.28667 0.01667,0.57 0.09,0.85v0zM167.84663,245.22959v0c0.45333,0.00667 0.88,-0.10333 1.28,-0.33c0.40667,-0.22667 0.75667,-0.54 1.05,-0.94v0l0.3,-1.74l-1.07,-0.01c-0.89333,0 -1.57667,0.14 -2.05,0.42c-0.47333,0.28 -0.74,0.68 -0.8,1.2v0c-0.04667,0.39333 0.04667,0.72333 0.28,0.99c0.22667,0.26 0.56333,0.39667 1.01,0.41z"></path></g></g></svg>